%TF.GenerationSoftware,Altium Limited,Altium Designer,20.2.6 (244)*%
G04 Layer_Color=2752767*
%FSLAX26Y26*%
%MOIN*%
%TF.SameCoordinates,2EAD6035-BE33-4F7B-B0E7-EE8266E33042*%
%TF.FilePolarity,Positive*%
%TF.FileFunction,Drawing*%
%TF.Part,Single*%
G01*
G75*
%TA.AperFunction,NonConductor*%
%ADD61C,0.005000*%
%ADD62C,0.006667*%
D61*
X763071Y58740D02*
Y98740D01*
X803071D01*
Y58740D01*
X763071D01*
X663071D02*
Y98740D01*
X703071D01*
Y58740D01*
X663071D01*
X463071D02*
Y98740D01*
X503071D01*
Y58740D01*
X463071D01*
X263071D02*
Y98740D01*
X303071D01*
Y58740D01*
X263071D01*
X63071D02*
Y98740D01*
X103071D01*
Y58740D01*
X63071D01*
X163071D02*
Y98740D01*
X203071D01*
Y58740D01*
X163071D01*
X363071D02*
Y98740D01*
X403071D01*
Y58740D01*
X363071D01*
X563071D02*
Y98740D01*
X603071D01*
Y58740D01*
X563071D01*
X553976Y796929D02*
Y836929D01*
X593976D01*
Y796929D01*
X553976D01*
X653976D02*
Y836929D01*
X693976D01*
Y796929D01*
X653976D01*
X753976D02*
Y836929D01*
X793976D01*
Y796929D01*
X753976D01*
X553976Y983937D02*
Y1023937D01*
X593976D01*
Y983937D01*
X553976D01*
X653976D02*
Y1023937D01*
X693976D01*
Y983937D01*
X653976D01*
X753976D02*
Y1023937D01*
X793976D01*
Y983937D01*
X753976D01*
X727362Y1300866D02*
X707362Y1340866D01*
X747362D01*
X727362Y1300866D01*
X552165D02*
X532165Y1340866D01*
X572165D01*
X552165Y1300866D01*
X475394Y1418976D02*
X485394Y1428976D01*
X495394D01*
X485394Y1438976D01*
X495394Y1448976D01*
X485394D01*
X475394Y1458976D01*
X465394Y1448976D01*
X455394D01*
X465394Y1438976D01*
X455394Y1428976D01*
X465394D01*
X475394Y1418976D01*
X804134D02*
X814134Y1428976D01*
X824134D01*
X814134Y1438976D01*
X824134Y1448976D01*
X814134D01*
X804134Y1458976D01*
X794134Y1448976D01*
X784134D01*
X794134Y1438976D01*
X784134Y1428976D01*
X794134D01*
X804134Y1418976D01*
X390748D02*
X400748Y1428976D01*
X410748D01*
X400748Y1438976D01*
X410748Y1448976D01*
X400748D01*
X390748Y1458976D01*
X380748Y1448976D01*
X370748D01*
X380748Y1438976D01*
X370748Y1428976D01*
X380748D01*
X390748Y1418976D01*
X313976Y1300866D02*
X293976Y1340866D01*
X333976D01*
X313976Y1300866D01*
X138780D02*
X118779Y1340866D01*
X158780D01*
X138780Y1300866D01*
X62008Y1418976D02*
X72008Y1428976D01*
X82008D01*
X72008Y1438976D01*
X82008Y1448976D01*
X72008D01*
X62008Y1458976D01*
X52008Y1448976D01*
X42008D01*
X52008Y1438976D01*
X42008Y1428976D01*
X52008D01*
X62008Y1418976D01*
X418504Y394882D02*
X428504Y414882D01*
X418504Y434882D01*
X438504Y424882D01*
X458504Y434882D01*
X448504Y414882D01*
X458504Y394882D01*
X438504Y404882D01*
X418504Y394882D01*
X75000Y720000D02*
X85000Y740000D01*
X75000Y760000D01*
X95000Y750000D01*
X115000Y760000D01*
X105000Y740000D01*
X115000Y720000D01*
X95000Y730000D01*
X75000Y720000D01*
X505000Y200000D02*
X515000Y220000D01*
X505000Y240000D01*
X525000Y230000D01*
X545000Y240000D01*
X535000Y220000D01*
X545000Y200000D01*
X525000Y210000D01*
X505000Y200000D01*
X300000Y210000D02*
X310000Y230000D01*
X300000Y250000D01*
X320000Y240000D01*
X340000Y250000D01*
X330000Y230000D01*
X340000Y210000D01*
X320000Y220000D01*
X300000Y210000D01*
X610000Y165000D02*
X620000Y185000D01*
X610000Y205000D01*
X630000Y195000D01*
X650000Y205000D01*
X640000Y185000D01*
X650000Y165000D01*
X630000Y175000D01*
X610000Y165000D01*
Y485000D02*
X620000Y505000D01*
X610000Y525000D01*
X630000Y515000D01*
X650000Y525000D01*
X640000Y505000D01*
X650000Y485000D01*
X630000Y495000D01*
X610000Y485000D01*
X630000Y640000D02*
X640000Y660000D01*
X630000Y680000D01*
X650000Y670000D01*
X670000Y680000D01*
X660000Y660000D01*
X670000Y640000D01*
X650000Y650000D01*
X630000Y640000D01*
X610000Y130000D02*
X620000Y150000D01*
X610000Y170000D01*
X630000Y160000D01*
X650000Y170000D01*
X640000Y150000D01*
X650000Y130000D01*
X630000Y140000D01*
X610000Y130000D01*
X60000Y540827D02*
X70000Y560827D01*
X60000Y580827D01*
X80000Y570827D01*
X100000Y580827D01*
X90000Y560827D01*
X100000Y540827D01*
X80000Y550827D01*
X60000Y540827D01*
X220000Y525000D02*
X230000Y545000D01*
X220000Y565000D01*
X240000Y555000D01*
X260000Y565000D01*
X250000Y545000D01*
X260000Y525000D01*
X240000Y535000D01*
X220000Y525000D01*
X245000Y630000D02*
X255000Y650000D01*
X245000Y670000D01*
X265000Y660000D01*
X285000Y670000D01*
X275000Y650000D01*
X285000Y630000D01*
X265000Y640000D01*
X245000Y630000D01*
X413071Y1355000D02*
X423071Y1375000D01*
X413071Y1395000D01*
X433071Y1385000D01*
X453071Y1395000D01*
X443071Y1375000D01*
X453071Y1355000D01*
X433071Y1365000D01*
X413071Y1355000D01*
X568582Y1245748D02*
X578582Y1265748D01*
X568582Y1285748D01*
X588582Y1275748D01*
X608582Y1285748D01*
X598582Y1265748D01*
X608582Y1245748D01*
X588582Y1255748D01*
X568582Y1245748D01*
X35000Y385000D02*
X45000Y405000D01*
X35000Y425000D01*
X55000Y415000D01*
X75000Y425000D01*
X65000Y405000D01*
X75000Y385000D01*
X55000Y395000D01*
X35000Y385000D01*
X120000Y165000D02*
X130000Y185000D01*
X120000Y205000D01*
X140000Y195000D01*
X160000Y205000D01*
X150000Y185000D01*
X160000Y165000D01*
X140000Y175000D01*
X120000Y165000D01*
X470000Y755000D02*
X480000Y775000D01*
X470000Y795000D01*
X490000Y785000D01*
X510000Y795000D01*
X500000Y775000D01*
X510000Y755000D01*
X490000Y765000D01*
X470000Y755000D01*
X370000Y510000D02*
X380000Y530000D01*
X370000Y550000D01*
X390000Y540000D01*
X410000Y550000D01*
X400000Y530000D01*
X410000Y510000D01*
X390000Y520000D01*
X370000Y510000D01*
X235276Y983937D02*
X245276Y1003937D01*
X235276Y1023937D01*
X255276Y1013937D01*
X275276Y1023937D01*
X265276Y1003937D01*
X275276Y983937D01*
X255276Y993937D01*
X235276Y983937D01*
X196535Y1094927D02*
X206535Y1114927D01*
X196535Y1134927D01*
X216535Y1124927D01*
X236535Y1134927D01*
X226535Y1114927D01*
X236535Y1094927D01*
X216535Y1104927D01*
X196535Y1094927D01*
X88268D02*
X98268Y1114927D01*
X88268Y1134927D01*
X108268Y1124927D01*
X128268Y1134927D01*
X118268Y1114927D01*
X128268Y1094927D01*
X108268Y1104927D01*
X88268Y1094927D01*
X323504Y767402D02*
X333504Y787402D01*
X323504Y807402D01*
X343504Y797402D01*
X363504Y807402D01*
X353504Y787402D01*
X363504Y767402D01*
X343504Y777402D01*
X323504Y767402D01*
X263504D02*
X273504Y787402D01*
X263504Y807402D01*
X283504Y797402D01*
X303504Y807402D01*
X293504Y787402D01*
X303504Y767402D01*
X283504Y777402D01*
X263504Y767402D01*
X120000Y215000D02*
X130000Y235000D01*
X120000Y255000D01*
X140000Y245000D01*
X160000Y255000D01*
X150000Y235000D01*
X160000Y215000D01*
X140000Y225000D01*
X120000Y215000D01*
X475000Y600079D02*
X485000Y620079D01*
X475000Y640079D01*
X495000Y630079D01*
X515000Y640079D01*
X505000Y620079D01*
X515000Y600079D01*
X495000Y610079D01*
X475000Y600079D01*
X415000D02*
X425000Y620079D01*
X415000Y640079D01*
X435000Y630079D01*
X455000Y640079D01*
X445000Y620079D01*
X455000Y600079D01*
X435000Y610079D01*
X415000Y600079D01*
X354016Y1198410D02*
X364016Y1218410D01*
X354016Y1238410D01*
X374016Y1228410D01*
X394016Y1238410D01*
X384016Y1218410D01*
X394016Y1198410D01*
X374016Y1208410D01*
X354016Y1198410D01*
X790000Y1325000D02*
X800000Y1345000D01*
X790000Y1365000D01*
X810000Y1355000D01*
X830000Y1365000D01*
X820000Y1345000D01*
X830000Y1325000D01*
X810000Y1335000D01*
X790000Y1325000D01*
D62*
X179213Y856299D02*
G03*
X179213Y856299I-20000J0D01*
G01*
X371339D02*
G03*
X371339Y856299I-20000J0D01*
G01*
%TF.MD5,290ac750e0322d9c75fccd855aa9364b*%
M02*
