%TF.GenerationSoftware,Altium Limited,Altium Designer,20.2.6 (244)*%
G04 Layer_Color=255*
%FSLAX26Y26*%
%MOIN*%
%TF.SameCoordinates,2EAD6035-BE33-4F7B-B0E7-EE8266E33042*%
%TF.FilePolarity,Positive*%
%TF.FileFunction,Pads,Top*%
%TF.Part,Single*%
G01*
G75*
%TA.AperFunction,SMDPad,CuDef*%
%ADD10R,0.043307X0.031752*%
%ADD11R,0.051505X0.031752*%
%ADD12R,0.053150X0.037402*%
%ADD13R,0.059055X0.039370*%
%ADD14R,0.047244X0.033465*%
%ADD15R,0.035433X0.031496*%
G04:AMPARAMS|DCode=16|XSize=124.016mil|YSize=57.087mil|CornerRadius=1.998mil|HoleSize=0mil|Usage=FLASHONLY|Rotation=180.000|XOffset=0mil|YOffset=0mil|HoleType=Round|Shape=RoundedRectangle|*
%AMROUNDEDRECTD16*
21,1,0.124016,0.053091,0,0,180.0*
21,1,0.120020,0.057087,0,0,180.0*
1,1,0.003996,-0.060010,0.026545*
1,1,0.003996,0.060010,0.026545*
1,1,0.003996,0.060010,-0.026545*
1,1,0.003996,-0.060010,-0.026545*
%
%ADD16ROUNDEDRECTD16*%
G04:AMPARAMS|DCode=17|XSize=35.433mil|YSize=57.087mil|CornerRadius=1.949mil|HoleSize=0mil|Usage=FLASHONLY|Rotation=180.000|XOffset=0mil|YOffset=0mil|HoleType=Round|Shape=RoundedRectangle|*
%AMROUNDEDRECTD17*
21,1,0.035433,0.053189,0,0,180.0*
21,1,0.031535,0.057087,0,0,180.0*
1,1,0.003898,-0.015768,0.026594*
1,1,0.003898,0.015768,0.026594*
1,1,0.003898,0.015768,-0.026594*
1,1,0.003898,-0.015768,-0.026594*
%
%ADD17ROUNDEDRECTD17*%
G04:AMPARAMS|DCode=18|XSize=21.654mil|YSize=49.213mil|CornerRadius=1.949mil|HoleSize=0mil|Usage=FLASHONLY|Rotation=0.000|XOffset=0mil|YOffset=0mil|HoleType=Round|Shape=RoundedRectangle|*
%AMROUNDEDRECTD18*
21,1,0.021654,0.045315,0,0,0.0*
21,1,0.017756,0.049213,0,0,0.0*
1,1,0.003898,0.008878,-0.022657*
1,1,0.003898,-0.008878,-0.022657*
1,1,0.003898,-0.008878,0.022657*
1,1,0.003898,0.008878,0.022657*
%
%ADD18ROUNDEDRECTD18*%
%ADD19R,0.043307X0.033465*%
%TA.AperFunction,ConnectorPad*%
%ADD20R,0.015748X0.053150*%
%ADD21R,0.070866X0.074803*%
%TA.AperFunction,SMDPad,CuDef*%
%ADD22R,0.037402X0.053150*%
%TA.AperFunction,ComponentPad*%
%ADD28C,0.078740*%
%ADD29R,0.078740X0.078740*%
%ADD30C,0.047244*%
%ADD31O,0.041339X0.049213*%
%ADD32O,0.047244X0.074803*%
D10*
X563071Y358307D02*
D03*
D11*
X55000D02*
D03*
Y271614D02*
D03*
X140000Y358307D02*
D03*
Y271614D02*
D03*
X563071D02*
D03*
X733071Y358307D02*
D03*
Y271614D02*
D03*
X223071D02*
D03*
X393071D02*
D03*
X216535Y1151541D02*
D03*
Y1218538D02*
D03*
X108268Y1151541D02*
D03*
Y1218538D02*
D03*
X324803Y1151541D02*
D03*
Y1218538D02*
D03*
X393071Y358307D02*
D03*
X223071D02*
D03*
D12*
X541339Y1155512D02*
D03*
Y1214567D02*
D03*
X757874Y1155512D02*
D03*
Y1214567D02*
D03*
X649606Y1155512D02*
D03*
Y1214567D02*
D03*
D13*
X433071Y1141732D02*
D03*
Y1228347D02*
D03*
D14*
X818071Y356299D02*
D03*
Y273622D02*
D03*
X648071Y356299D02*
D03*
Y273622D02*
D03*
X478071D02*
D03*
X308071Y356299D02*
D03*
Y273622D02*
D03*
D15*
X134213Y523425D02*
D03*
X35787Y486024D02*
D03*
Y560827D02*
D03*
X134213Y659449D02*
D03*
X35787Y622047D02*
D03*
Y696850D02*
D03*
D16*
X718583Y718504D02*
D03*
D17*
X809134Y464567D02*
D03*
X718583D02*
D03*
X628032D02*
D03*
D18*
X189252Y472441D02*
D03*
X239252D02*
D03*
X289252D02*
D03*
X339252D02*
D03*
X389252D02*
D03*
X439252D02*
D03*
X489252D02*
D03*
X539252D02*
D03*
X189252Y708661D02*
D03*
X239252D02*
D03*
X289252D02*
D03*
X339252D02*
D03*
X389252D02*
D03*
X439252D02*
D03*
X489252D02*
D03*
X539252D02*
D03*
D19*
X478071Y356299D02*
D03*
D20*
X614173Y1333661D02*
D03*
X639764D02*
D03*
X588582D02*
D03*
X665354D02*
D03*
X690945D02*
D03*
X200787D02*
D03*
X226378D02*
D03*
X175197D02*
D03*
X251969D02*
D03*
X277559D02*
D03*
D21*
X685039Y1438976D02*
D03*
X594488D02*
D03*
X181102D02*
D03*
X271654D02*
D03*
D22*
X137165Y1003937D02*
D03*
X215905D02*
D03*
X294646D02*
D03*
X373386D02*
D03*
D28*
X783071Y78740D02*
D03*
X683071D02*
D03*
X483071D02*
D03*
X283071D02*
D03*
X183071D02*
D03*
X383071D02*
D03*
X583071D02*
D03*
X673976Y816929D02*
D03*
X773976D02*
D03*
X673976Y1003937D02*
D03*
X773976D02*
D03*
D29*
X83071Y78740D02*
D03*
X573976Y816929D02*
D03*
Y1003937D02*
D03*
D30*
X159213Y856299D02*
D03*
X351339D02*
D03*
D31*
X727362Y1320866D02*
D03*
X552165D02*
D03*
X313976D02*
D03*
X138780D02*
D03*
D32*
X475394Y1438976D02*
D03*
X804134D02*
D03*
X390748D02*
D03*
X62008D02*
D03*
%TF.MD5,e70b29875e1f3067acb662e0161f2fe5*%
M02*
