%TF.GenerationSoftware,Altium Limited,Altium Designer,20.2.6 (244)*%
G04 Layer_Color=0*
%FSLAX26Y26*%
%MOIN*%
%TF.SameCoordinates,2EAD6035-BE33-4F7B-B0E7-EE8266E33042*%
%TF.FilePolarity,Positive*%
%TF.FileFunction,Other,Top_Component_Center*%
%TF.Part,Single*%
G01*
G75*
%TA.AperFunction,NonConductor*%
%ADD51C,0.003937*%
D51*
X55000Y295276D02*
Y334646D01*
X35315Y314961D02*
X74685D01*
X140000Y295276D02*
Y334646D01*
X120315Y314961D02*
X159685D01*
X563071Y295276D02*
Y334646D01*
X543386Y314961D02*
X582756D01*
X733071Y295276D02*
Y334646D01*
X713386Y314961D02*
X752756D01*
X521654Y1185039D02*
X561024D01*
X541339Y1165354D02*
Y1204724D01*
X413386Y1185039D02*
X452756D01*
X433071Y1165354D02*
Y1204724D01*
X85000Y503740D02*
Y543110D01*
X65315Y523425D02*
X104685D01*
X85000Y639764D02*
Y679134D01*
X65315Y659449D02*
X104685D01*
X196850Y1185039D02*
X236220D01*
X216535Y1165354D02*
Y1204724D01*
X88583Y1185039D02*
X127953D01*
X108268Y1165354D02*
Y1204724D01*
X305118Y1185039D02*
X344488D01*
X324803Y1165354D02*
Y1204724D01*
X373386Y314961D02*
X412756D01*
X393071Y295276D02*
Y334646D01*
X203386Y314961D02*
X242756D01*
X223071Y295276D02*
Y334646D01*
X738189Y1185039D02*
X777559D01*
X757874Y1165354D02*
Y1204724D01*
X629921Y1185039D02*
X669291D01*
X649606Y1165354D02*
Y1204724D01*
X176535Y984252D02*
Y1023622D01*
X156850Y1003937D02*
X196220D01*
X334016Y984252D02*
Y1023622D01*
X314331Y1003937D02*
X353701D01*
%TF.MD5,823f338b7a0e969c7b7ad9dc5802de21*%
M02*
