%TF.GenerationSoftware,Altium Limited,Altium Designer,20.2.6 (244)*%
G04 Layer_Color=65535*
%FSLAX26Y26*%
%MOIN*%
%TF.SameCoordinates,2EAD6035-BE33-4F7B-B0E7-EE8266E33042*%
%TF.FilePolarity,Positive*%
%TF.FileFunction,Legend,Top*%
%TF.Part,Single*%
G01*
G75*
%TA.AperFunction,NonConductor*%
%ADD39C,0.007874*%
%ADD40C,0.023622*%
%ADD41C,0.010000*%
D39*
X387165Y764764D02*
G03*
X387165Y947835I0J91535D01*
G01*
X123386D02*
G03*
X123386Y764764I0J-91535D01*
G01*
X30394Y312102D02*
Y317819D01*
X79606Y312102D02*
Y317819D01*
X115394Y312102D02*
Y317819D01*
X164606Y312102D02*
Y317819D01*
X538465Y312102D02*
Y317819D01*
X587677Y312102D02*
Y317819D01*
X708465Y312102D02*
Y317819D01*
X757677Y312102D02*
Y317819D01*
X815000Y1315000D02*
X825000Y1305000D01*
X810000Y1315000D02*
X815000D01*
X50000D02*
X55000D01*
X40000Y1305000D02*
X50000Y1315000D01*
X499016Y1141732D02*
Y1228347D01*
X583661Y1141732D02*
Y1228347D01*
X403543Y1176181D02*
Y1193898D01*
X462599Y1176181D02*
Y1193898D01*
X798386Y309055D02*
X837756D01*
Y320866D01*
X798386Y309055D02*
Y320866D01*
X628386Y309055D02*
X667756D01*
Y320866D01*
X628386Y309055D02*
Y320866D01*
X78110Y463583D02*
X112559D01*
Y553937D02*
Y583268D01*
Y463583D02*
Y492913D01*
X78110Y583268D02*
X112559D01*
X78110Y599606D02*
X112559D01*
Y689961D02*
Y719291D01*
Y599606D02*
Y628937D01*
X78110Y719291D02*
X112559D01*
X838976Y25787D02*
Y131693D01*
X27165D02*
X838976D01*
X27165Y25787D02*
Y131693D01*
Y25787D02*
X838976D01*
X123386Y947835D02*
X387165D01*
X123386Y764764D02*
X387165D01*
X850472Y509842D02*
Y671260D01*
X586693Y509842D02*
Y671260D01*
X850472D01*
X586693Y509842D02*
X850472D01*
X167402Y527559D02*
Y653543D01*
X561102Y527559D02*
Y653543D01*
X167402Y527559D02*
X561102D01*
X167402Y653543D02*
X561102D01*
X191929Y1182181D02*
Y1187898D01*
X241142Y1182181D02*
Y1187898D01*
X83661Y1182181D02*
Y1187898D01*
X132874Y1182181D02*
Y1187898D01*
X300197Y1182181D02*
Y1187898D01*
X349409Y1182181D02*
Y1187898D01*
X417677Y312102D02*
Y317819D01*
X368465Y312102D02*
Y317819D01*
X247677Y312102D02*
Y317819D01*
X198465Y312102D02*
Y317819D01*
X829882Y763976D02*
Y869882D01*
X518071D02*
X829882D01*
X518071Y763976D02*
Y869882D01*
Y763976D02*
X829882D01*
Y950984D02*
Y1056890D01*
X518071D02*
X829882D01*
X518071Y950984D02*
Y1056890D01*
Y950984D02*
X829882D01*
X458386Y309055D02*
X497756D01*
Y320866D01*
X458386Y309055D02*
Y320866D01*
X288386Y309055D02*
X327756D01*
Y320866D01*
X288386Y309055D02*
Y320866D01*
X765748Y1326772D02*
X787402D01*
Y1385827D01*
X492126Y1326772D02*
Y1385827D01*
Y1326772D02*
X513779D01*
X352362D02*
X374016D01*
Y1385827D01*
X78740Y1326772D02*
Y1385827D01*
Y1326772D02*
X100394D01*
X715551Y1141732D02*
Y1228347D01*
X800197Y1141732D02*
Y1228347D01*
X607284Y1141732D02*
Y1228347D01*
X691929Y1141732D02*
Y1228347D01*
X133228Y1046260D02*
X219843D01*
X133228Y961614D02*
X219843D01*
X290709Y1046260D02*
X377323D01*
X290709Y961614D02*
X377323D01*
X25482Y385832D02*
Y421254D01*
X43193D01*
X49096Y415351D01*
Y403543D01*
X43193Y397640D01*
X25482D01*
X37289D02*
X49096Y385832D01*
X78614D02*
Y421254D01*
X60904Y403543D01*
X84518D01*
X110482Y385832D02*
Y421254D01*
X128193D01*
X134096Y415351D01*
Y403543D01*
X128193Y397640D01*
X110482D01*
X122289D02*
X134096Y385832D01*
X169518Y421254D02*
X145904D01*
Y403543D01*
X157711Y409447D01*
X163614D01*
X169518Y403543D01*
Y391736D01*
X163614Y385832D01*
X151807D01*
X145904Y391736D01*
X533553Y385832D02*
Y421254D01*
X551264D01*
X557167Y415351D01*
Y403543D01*
X551264Y397640D01*
X533553D01*
X545360D02*
X557167Y385832D01*
X568975Y415351D02*
X574878Y421254D01*
X586685D01*
X592589Y415351D01*
Y409447D01*
X586685Y403543D01*
X592589Y397640D01*
Y391736D01*
X586685Y385832D01*
X574878D01*
X568975Y391736D01*
Y397640D01*
X574878Y403543D01*
X568975Y409447D01*
Y415351D01*
X574878Y403543D02*
X586685D01*
X703553Y385832D02*
Y421254D01*
X721264D01*
X727167Y415351D01*
Y403543D01*
X721264Y397640D01*
X703553D01*
X715360D02*
X727167Y385832D01*
X738975Y391736D02*
X744878Y385832D01*
X756685D01*
X762589Y391736D01*
Y415351D01*
X756685Y421254D01*
X744878D01*
X738975Y415351D01*
Y409447D01*
X744878Y403543D01*
X762589D01*
X788553Y425191D02*
X812167D01*
X800360D01*
Y389769D01*
X823975Y425191D02*
X847589Y389769D01*
Y425191D02*
X823975Y389769D01*
X618553D02*
Y425191D01*
X636264D01*
X642167Y419288D01*
Y407480D01*
X636264Y401577D01*
X618553D01*
X630360D02*
X642167Y389769D01*
X653975Y425191D02*
X677589Y389769D01*
Y425191D02*
X653975Y389769D01*
X448553Y425191D02*
Y389769D01*
X466264D01*
X472167Y395673D01*
Y419288D01*
X466264Y425191D01*
X448553D01*
X483974D02*
X507589D01*
X495782D01*
Y389769D01*
X278553D02*
Y425191D01*
X296264D01*
X302167Y419288D01*
Y407480D01*
X296264Y401577D01*
X278553D01*
X313974Y425191D02*
Y389769D01*
X325782Y401577D01*
X337589Y389769D01*
Y425191D01*
X11386Y772711D02*
X35000Y737289D01*
Y772711D02*
X11386Y737289D01*
X46807D02*
X58614D01*
X52711D01*
Y772711D01*
X46807Y766807D01*
X790482Y729325D02*
Y699807D01*
X796386Y693903D01*
X808193D01*
X814096Y699807D01*
Y729325D01*
X849518Y693903D02*
X825904D01*
X849518Y717518D01*
Y723421D01*
X843614Y729325D01*
X831807D01*
X825904Y723421D01*
X571386Y729325D02*
Y699807D01*
X577289Y693903D01*
X589096D01*
X595000Y699807D01*
Y729325D01*
X606807Y693903D02*
X618614D01*
X612711D01*
Y729325D01*
X606807Y723421D01*
X187017Y1246069D02*
Y1281490D01*
X204728D01*
X210632Y1275587D01*
Y1263780D01*
X204728Y1257876D01*
X187017D01*
X198825D02*
X210632Y1246069D01*
X246053D02*
X222439D01*
X246053Y1269683D01*
Y1275587D01*
X240150Y1281490D01*
X228343D01*
X222439Y1275587D01*
X84653Y1246069D02*
Y1281490D01*
X102364D01*
X108268Y1275587D01*
Y1263780D01*
X102364Y1257876D01*
X84653D01*
X96460D02*
X108268Y1246069D01*
X120075D02*
X131882D01*
X125978D01*
Y1281490D01*
X120075Y1275587D01*
X295285Y1246069D02*
Y1281490D01*
X312996D01*
X318899Y1275587D01*
Y1263780D01*
X312996Y1257876D01*
X295285D01*
X307092D02*
X318899Y1246069D01*
X330707Y1275587D02*
X336610Y1281490D01*
X348418D01*
X354321Y1275587D01*
Y1269683D01*
X348418Y1263780D01*
X342514D01*
X348418D01*
X354321Y1257876D01*
Y1251972D01*
X348418Y1246069D01*
X336610D01*
X330707Y1251972D01*
X363553Y385832D02*
Y421254D01*
X381264D01*
X387167Y415351D01*
Y403543D01*
X381264Y397640D01*
X363553D01*
X375360D02*
X387167Y385832D01*
X398974Y421254D02*
X422589D01*
Y415351D01*
X398974Y391736D01*
Y385832D01*
X193553D02*
Y421254D01*
X211264D01*
X217167Y415351D01*
Y403543D01*
X211264Y397640D01*
X193553D01*
X205360D02*
X217167Y385832D01*
X252589Y421254D02*
X240782Y415351D01*
X228975Y403543D01*
Y391736D01*
X234878Y385832D01*
X246685D01*
X252589Y391736D01*
Y397640D01*
X246685Y403543D01*
X228975D01*
X134925Y724407D02*
X158540D01*
X164443Y730311D01*
Y742118D01*
X158540Y748022D01*
X134925D01*
X129022Y742118D01*
Y730311D01*
X140829Y736215D02*
X129022Y724407D01*
Y730311D02*
X134925Y724407D01*
X129022Y688986D02*
Y712600D01*
X152636Y688986D01*
X158540D01*
X164443Y694889D01*
Y706697D01*
X158540Y712600D01*
X134925Y468504D02*
X158540D01*
X164443Y474407D01*
Y486214D01*
X158540Y492118D01*
X134925D01*
X129022Y486214D01*
Y474407D01*
X140829Y480311D02*
X129022Y468504D01*
Y474407D02*
X134925Y468504D01*
X129022Y456697D02*
Y444889D01*
Y450793D01*
X164443D01*
X158540Y456697D01*
X816935Y1352364D02*
Y1340557D01*
Y1346460D01*
X846453D01*
X852356Y1340557D01*
Y1334653D01*
X846453Y1328750D01*
X852356Y1387786D02*
Y1364171D01*
X828742Y1387786D01*
X822838D01*
X816935Y1381882D01*
Y1370075D01*
X822838Y1364171D01*
X12289Y1358268D02*
Y1346461D01*
Y1352364D01*
X41807D01*
X47711Y1346461D01*
Y1340557D01*
X41807Y1334653D01*
X47711Y1370075D02*
Y1381882D01*
Y1375979D01*
X12289D01*
X18193Y1370075D01*
X433071Y1297238D02*
X409457D01*
Y1279528D01*
X421264D01*
X409457D01*
Y1261817D01*
X444878D02*
X456685D01*
X450782D01*
Y1297238D01*
X444878Y1291335D01*
X751970Y1275587D02*
X746067Y1281490D01*
X734260D01*
X728356Y1275587D01*
Y1251972D01*
X734260Y1246069D01*
X746067D01*
X751970Y1251972D01*
X763778Y1275587D02*
X769681Y1281490D01*
X781488D01*
X787392Y1275587D01*
Y1269683D01*
X781488Y1263780D01*
X775585D01*
X781488D01*
X787392Y1257876D01*
Y1251972D01*
X781488Y1246069D01*
X769681D01*
X763778Y1251972D01*
X541339Y1275587D02*
X535435Y1281490D01*
X523628D01*
X517724Y1275587D01*
Y1251972D01*
X523628Y1246069D01*
X535435D01*
X541339Y1251972D01*
X553146Y1246069D02*
X564953D01*
X559049D01*
Y1281490D01*
X553146Y1275587D01*
X643703D02*
X637799Y1281490D01*
X625992D01*
X620088Y1275587D01*
Y1251972D01*
X625992Y1246069D01*
X637799D01*
X643703Y1251972D01*
X679124Y1246069D02*
X655510D01*
X679124Y1269683D01*
Y1275587D01*
X673221Y1281490D01*
X661413D01*
X655510Y1275587D01*
X73781Y986807D02*
X67878Y992711D01*
X56071D01*
X50167Y986807D01*
Y963193D01*
X56071Y957289D01*
X67878D01*
X73781Y963193D01*
X103299Y957289D02*
Y992711D01*
X85589Y975000D01*
X109203D01*
X429411Y986807D02*
X423508Y992711D01*
X411700D01*
X405797Y986807D01*
Y963193D01*
X411700Y957289D01*
X423508D01*
X429411Y963193D01*
X464833Y992711D02*
X441219D01*
Y975000D01*
X453026Y980904D01*
X458929D01*
X464833Y975000D01*
Y963193D01*
X458929Y957289D01*
X447122D01*
X441219Y963193D01*
D40*
X533543Y614173D02*
G03*
X533543Y614173I-11811J0D01*
G01*
D41*
X465360Y148780D02*
X500781D01*
Y166490D01*
X494878Y172394D01*
X471264D01*
X465360Y166490D01*
Y148780D01*
Y184201D02*
Y207815D01*
Y196008D01*
X500781D01*
Y219623D02*
X465360D01*
Y237333D01*
X471264Y243237D01*
X483071D01*
X488974Y237333D01*
Y219623D01*
Y231430D02*
X500781Y243237D01*
X853852Y1187771D02*
X818431D01*
Y1205482D01*
X824334Y1211386D01*
X836142D01*
X842045Y1205482D01*
Y1187771D01*
X818431Y1223193D02*
X853852D01*
X842045Y1235000D01*
X853852Y1246807D01*
X818431D01*
X853852Y1258614D02*
X818431D01*
Y1276325D01*
X824334Y1282229D01*
X836142D01*
X842045Y1276325D01*
Y1258614D01*
Y1270422D02*
X853852Y1282229D01*
X17289Y1014217D02*
X52711D01*
Y1031928D01*
X46807Y1037832D01*
X23193D01*
X17289Y1031928D01*
Y1014217D01*
X52711Y1049639D02*
X29096D01*
X17289Y1061446D01*
X29096Y1073253D01*
X52711D01*
X35000D01*
Y1049639D01*
X17289Y1085060D02*
Y1108675D01*
Y1096868D01*
X52711D01*
Y1120482D02*
X29096D01*
X17289Y1132289D01*
X29096Y1144096D01*
X52711D01*
X35000D01*
Y1120482D01*
Y1155904D02*
Y1179518D01*
X23193Y1167711D02*
X46807D01*
X52711Y1191325D02*
X17289D01*
Y1209036D01*
X23193Y1214940D01*
X35000D01*
X40904Y1209036D01*
Y1191325D01*
X17289Y1226747D02*
X52711D01*
X40904Y1238554D01*
X52711Y1250361D01*
X17289D01*
X52711Y1262168D02*
X17289D01*
Y1279879D01*
X23193Y1285783D01*
X35000D01*
X40904Y1279879D01*
Y1262168D01*
Y1273976D02*
X52711Y1285783D01*
X573976Y1114168D02*
X562169D01*
X568073D01*
Y1084649D01*
X562169Y1078746D01*
X556266D01*
X550362Y1084649D01*
X585784Y1078746D02*
X597591D01*
X591687D01*
Y1114168D01*
X585784Y1108264D01*
X768073Y1114168D02*
X756266D01*
X762169D01*
Y1084649D01*
X756266Y1078746D01*
X750362D01*
X744458Y1084649D01*
X803494Y1078746D02*
X779880D01*
X803494Y1102360D01*
Y1108264D01*
X797591Y1114168D01*
X785784D01*
X779880Y1108264D01*
X626748Y1078746D02*
Y1114168D01*
X644458D01*
X650362Y1108264D01*
Y1096457D01*
X644458Y1090553D01*
X626748D01*
X662169Y1114168D02*
Y1078746D01*
X673976Y1090553D01*
X685784Y1078746D01*
Y1114168D01*
X697591Y1078746D02*
Y1114168D01*
X715302D01*
X721205Y1108264D01*
Y1096457D01*
X715302Y1090553D01*
X697591D01*
X709398D02*
X721205Y1078746D01*
X126031Y1095232D02*
X120127Y1101136D01*
X108320D01*
X102417Y1095232D01*
Y1089329D01*
X108320Y1083425D01*
X120127D01*
X126031Y1077522D01*
Y1071618D01*
X120127Y1065714D01*
X108320D01*
X102417Y1071618D01*
X137838Y1101136D02*
Y1065714D01*
Y1077522D01*
X161453Y1101136D01*
X143742Y1083425D01*
X161453Y1065714D01*
X190971Y1101136D02*
X179163D01*
X173260Y1095232D01*
Y1071618D01*
X179163Y1065714D01*
X190971D01*
X196874Y1071618D01*
Y1095232D01*
X190971Y1101136D01*
X208681Y1065714D02*
Y1101136D01*
X226392D01*
X232296Y1095232D01*
Y1083425D01*
X226392Y1077522D01*
X208681D01*
X244103Y1101136D02*
Y1071618D01*
X250007Y1065714D01*
X261814D01*
X267717Y1071618D01*
Y1101136D01*
X303139Y1095232D02*
X297236Y1101136D01*
X285428D01*
X279525Y1095232D01*
Y1089329D01*
X285428Y1083425D01*
X297236D01*
X303139Y1077522D01*
Y1071618D01*
X297236Y1065714D01*
X285428D01*
X279525Y1071618D01*
X314946Y1065714D02*
Y1071618D01*
X320850D01*
Y1065714D01*
X314946D01*
X362175Y1101136D02*
X350368D01*
X344464Y1095232D01*
Y1071618D01*
X350368Y1065714D01*
X362175D01*
X368079Y1071618D01*
Y1095232D01*
X362175Y1101136D01*
X379886Y1065714D02*
Y1101136D01*
X397597D01*
X403500Y1095232D01*
Y1083425D01*
X397597Y1077522D01*
X379886D01*
X391693D02*
X403500Y1065714D01*
X438922Y1095232D02*
X433018Y1101136D01*
X421211D01*
X415308Y1095232D01*
Y1071618D01*
X421211Y1065714D01*
X433018D01*
X438922Y1071618D01*
Y1083425D01*
X427115D01*
X765360Y148780D02*
Y172394D01*
Y160587D01*
X800782D01*
X765360Y184201D02*
X800782Y207815D01*
X765360D02*
X800782Y184201D01*
X700782Y148780D02*
X665360D01*
Y166490D01*
X671264Y172394D01*
X683071D01*
X688974Y166490D01*
Y148780D01*
Y160587D02*
X700782Y172394D01*
X665360Y184201D02*
X700782Y207815D01*
X665360D02*
X700782Y184201D01*
X600782Y148780D02*
X565360D01*
Y166490D01*
X571264Y172394D01*
X583071D01*
X588974Y166490D01*
Y148780D01*
Y160587D02*
X600782Y172394D01*
X565360Y184201D02*
Y207815D01*
Y196008D01*
X600782D01*
X571264Y243237D02*
X565360Y237333D01*
Y225526D01*
X571264Y219623D01*
X577167D01*
X583071Y225526D01*
Y237333D01*
X588974Y243237D01*
X594878D01*
X600782Y237333D01*
Y225526D01*
X594878Y219623D01*
X365360Y148780D02*
Y160587D01*
Y154683D01*
X400781D01*
Y148780D01*
Y160587D01*
X365360Y196008D02*
Y184201D01*
X371264Y178298D01*
X394878D01*
X400781Y184201D01*
Y196008D01*
X394878Y201912D01*
X371264D01*
X365360Y196008D01*
X371264Y213719D02*
X365360Y219623D01*
Y231430D01*
X371264Y237333D01*
X394878D01*
X400781Y231430D01*
Y219623D01*
X394878Y213719D01*
X371264D01*
X300781Y148780D02*
X277167D01*
Y166490D01*
X283071Y172394D01*
X300781D01*
Y184201D02*
X265360D01*
Y201912D01*
X271264Y207815D01*
X283071D01*
X288974Y201912D01*
Y184201D01*
Y196008D02*
X300781Y207815D01*
X271264Y243237D02*
X265360Y237333D01*
Y225526D01*
X271264Y219623D01*
X277167D01*
X283071Y225526D01*
Y237333D01*
X288974Y243237D01*
X294878D01*
X300781Y237333D01*
Y225526D01*
X294878Y219623D01*
X165360Y148780D02*
X188974D01*
X200781Y160587D01*
X188974Y172394D01*
X165360D01*
X171263Y207815D02*
X165360Y201912D01*
Y190105D01*
X171263Y184201D01*
X194878D01*
X200781Y190105D01*
Y201912D01*
X194878Y207815D01*
X171263Y243237D02*
X165360Y237333D01*
Y225526D01*
X171263Y219623D01*
X194878D01*
X200781Y225526D01*
Y237333D01*
X194878Y243237D01*
X71263Y172394D02*
X65360Y166490D01*
Y154683D01*
X71263Y148780D01*
X94878D01*
X100781Y154683D01*
Y166490D01*
X94878Y172394D01*
X83071D01*
Y160587D01*
X100781Y184201D02*
X65360D01*
X100781Y207815D01*
X65360D01*
Y219623D02*
X100781D01*
Y237333D01*
X94878Y243237D01*
X71263D01*
X65360Y237333D01*
Y219623D01*
X568073Y927160D02*
X544458D01*
Y909449D01*
X556266Y915352D01*
X562169D01*
X568073Y909449D01*
Y897642D01*
X562169Y891738D01*
X550362D01*
X544458Y897642D01*
X579880Y927160D02*
Y903545D01*
X591687Y891738D01*
X603494Y903545D01*
Y927160D01*
X744458Y921256D02*
X750362Y927160D01*
X762169D01*
X768073Y921256D01*
Y915352D01*
X762169Y909449D01*
X756266D01*
X762169D01*
X768073Y903545D01*
Y897642D01*
X762169Y891738D01*
X750362D01*
X744458Y897642D01*
X779880Y927160D02*
Y903545D01*
X791687Y891738D01*
X803494Y903545D01*
Y927160D01*
X626748D02*
Y903545D01*
X638555Y891738D01*
X650362Y903545D01*
Y927160D01*
X685784Y921256D02*
X679880Y927160D01*
X668073D01*
X662169Y921256D01*
Y897642D01*
X668073Y891738D01*
X679880D01*
X685784Y897642D01*
X721205Y921256D02*
X715302Y927160D01*
X703494D01*
X697591Y921256D01*
Y897642D01*
X703494Y891738D01*
X715302D01*
X721205Y897642D01*
%TF.MD5,63dd7ad497ae82dfba56b733352a5588*%
M02*
