%TF.GenerationSoftware,Altium Limited,Altium Designer,20.2.6 (244)*%
G04 Layer_Physical_Order=2*
G04 Layer_Color=16711680*
%FSLAX26Y26*%
%MOIN*%
%TF.SameCoordinates,2EAD6035-BE33-4F7B-B0E7-EE8266E33042*%
%TF.FilePolarity,Positive*%
%TF.FileFunction,Copper,L2,Bot,Signal*%
%TF.Part,Single*%
G01*
G75*
%TA.AperFunction,Conductor*%
%ADD23C,0.031496*%
%ADD25C,0.023622*%
%TA.AperFunction,ComponentPad*%
%ADD28C,0.078740*%
%ADD29R,0.078740X0.078740*%
%ADD30C,0.047244*%
%ADD31O,0.041339X0.049213*%
%ADD32O,0.047244X0.074803*%
%TA.AperFunction,ViaPad*%
%ADD33C,0.031496*%
G36*
X846071Y1353855D02*
X832463Y1367463D01*
X825884Y1372512D01*
X818222Y1375685D01*
X810000Y1376768D01*
X801778Y1375685D01*
X794116Y1372512D01*
X787537Y1367463D01*
X782488Y1360884D01*
X779315Y1353222D01*
X778232Y1345000D01*
X779315Y1336778D01*
X782488Y1329116D01*
X787537Y1322537D01*
X803232Y1306841D01*
Y1050963D01*
X801773Y1052083D01*
X788365Y1057636D01*
X773976Y1059531D01*
X759588Y1057636D01*
X746180Y1052083D01*
X734666Y1043248D01*
X725831Y1031734D01*
X723976Y1027257D01*
X722122Y1031734D01*
X713287Y1043248D01*
X701773Y1052083D01*
X688365Y1057636D01*
X673976Y1059531D01*
X659588Y1057636D01*
X646180Y1052083D01*
X634666Y1043248D01*
X629095Y1035987D01*
Y1059055D01*
X526768D01*
Y1170000D01*
X525685Y1178222D01*
X522512Y1185884D01*
X517463Y1192463D01*
X469054Y1240873D01*
X462474Y1245921D01*
X454812Y1249095D01*
X446590Y1250178D01*
X374016D01*
X365794Y1249095D01*
X358132Y1245921D01*
X351553Y1240873D01*
X346504Y1234294D01*
X343330Y1226632D01*
X342248Y1218410D01*
X343330Y1210188D01*
X346504Y1202526D01*
X351553Y1195947D01*
X358132Y1190898D01*
X365794Y1187724D01*
X374016Y1186642D01*
X433432D01*
X463232Y1156841D01*
Y928450D01*
X464315Y920228D01*
X467488Y912566D01*
X472537Y905987D01*
X490987Y887537D01*
X497566Y882488D01*
X505228Y879315D01*
X513450Y878232D01*
X743232D01*
Y862813D01*
X734666Y856240D01*
X725831Y844726D01*
X723976Y840249D01*
X722122Y844726D01*
X713287Y856240D01*
X701773Y865075D01*
X688365Y870629D01*
X673976Y872523D01*
X659588Y870629D01*
X646180Y865075D01*
X634666Y856240D01*
X629095Y848979D01*
Y872047D01*
X518858D01*
Y761811D01*
X629095D01*
Y784879D01*
X634666Y777618D01*
X646180Y768784D01*
X659588Y763230D01*
X673976Y761335D01*
X688365Y763230D01*
X701773Y768784D01*
X713287Y777618D01*
X722122Y789132D01*
X723976Y793609D01*
X725831Y789132D01*
X734666Y777618D01*
X746180Y768784D01*
X759588Y763230D01*
X773976Y761335D01*
X788365Y763230D01*
X801773Y768784D01*
X813287Y777618D01*
X822122Y789132D01*
X827676Y802540D01*
X829570Y816929D01*
X827676Y831318D01*
X822122Y844726D01*
X813287Y856240D01*
X806768Y861242D01*
Y891550D01*
X805685Y899772D01*
X802512Y907434D01*
X797463Y914013D01*
X779013Y932463D01*
X772434Y937512D01*
X764772Y940685D01*
X756550Y941768D01*
X526768D01*
Y948819D01*
X629095D01*
Y971887D01*
X634666Y964626D01*
X646180Y955791D01*
X659588Y950238D01*
X673976Y948343D01*
X688365Y950238D01*
X701773Y955791D01*
X713287Y964626D01*
X722122Y976140D01*
X723976Y980617D01*
X725831Y976140D01*
X734666Y964626D01*
X746180Y955791D01*
X759588Y950238D01*
X773976Y948343D01*
X788365Y950238D01*
X801773Y955791D01*
X813287Y964626D01*
X820266Y973721D01*
X824772Y974315D01*
X832434Y977488D01*
X839013Y982537D01*
X846071Y989595D01*
Y20071D01*
X20071D01*
Y400619D01*
X24600Y396090D01*
X27488Y389116D01*
X32537Y382537D01*
X39116Y377489D01*
X46778Y374315D01*
X55000Y373233D01*
X63222Y374315D01*
X70884Y377489D01*
X77463Y382537D01*
X82512Y389116D01*
X85685Y396778D01*
X86768Y405000D01*
X85685Y413223D01*
X82512Y420884D01*
X77463Y427464D01*
X70884Y432512D01*
X63911Y435401D01*
X62797Y436514D01*
Y533104D01*
X108232Y487668D01*
Y235000D01*
X109315Y226778D01*
X112488Y219116D01*
X117537Y212537D01*
X120470Y210286D01*
X118010Y207826D01*
X117537Y207463D01*
X112488Y200884D01*
X109315Y193222D01*
X108232Y185000D01*
X109315Y176778D01*
X112488Y169116D01*
X117537Y162537D01*
X124116Y157488D01*
X131778Y154315D01*
X140000Y153232D01*
X140110D01*
X148332Y154315D01*
X155994Y157488D01*
X162573Y162537D01*
X197896Y197860D01*
X202945Y204439D01*
X206119Y212101D01*
X207201Y220323D01*
Y674567D01*
X206119Y682789D01*
X202945Y690451D01*
X197896Y697030D01*
X137723Y757203D01*
X153486D01*
X205345Y705345D01*
X211102Y700927D01*
X217806Y698150D01*
X225000Y697203D01*
X312203D01*
Y635000D01*
X313150Y627806D01*
X315927Y621102D01*
X320345Y615345D01*
X376988Y558701D01*
X374116Y557512D01*
X367537Y552463D01*
X362488Y545884D01*
X359834Y539476D01*
X292797Y606514D01*
Y634804D01*
X295685Y641778D01*
X296768Y650000D01*
X295685Y658222D01*
X292512Y665884D01*
X287463Y672463D01*
X280884Y677512D01*
X273222Y680685D01*
X265000Y681768D01*
X256778Y680685D01*
X249116Y677512D01*
X242537Y672463D01*
X237488Y665884D01*
X234315Y658222D01*
X233232Y650000D01*
X234315Y641778D01*
X237203Y634804D01*
Y595000D01*
X238150Y587806D01*
X240927Y581102D01*
X244731Y576145D01*
X240000Y576768D01*
X231778Y575685D01*
X224116Y572512D01*
X217537Y567463D01*
X212488Y560884D01*
X209315Y553222D01*
X208232Y545000D01*
X209315Y536778D01*
X212488Y529116D01*
X217537Y522537D01*
X224116Y517488D01*
X231090Y514600D01*
X277203Y468486D01*
Y320000D01*
X278150Y312806D01*
X280927Y306102D01*
X285345Y300345D01*
X337203Y248486D01*
Y171514D01*
X297933Y132244D01*
X297460Y132440D01*
X283071Y134334D01*
X268682Y132440D01*
X255274Y126886D01*
X243760Y118051D01*
X234925Y106537D01*
X233071Y102060D01*
X231216Y106537D01*
X222382Y118051D01*
X210868Y126886D01*
X197460Y132440D01*
X183071Y134334D01*
X168682Y132440D01*
X155274Y126886D01*
X143760Y118051D01*
X134925Y106537D01*
X129371Y93129D01*
X127477Y78740D01*
X129371Y64352D01*
X134925Y50943D01*
X143760Y39429D01*
X155274Y30595D01*
X168682Y25041D01*
X183071Y23146D01*
X197460Y25041D01*
X210868Y30595D01*
X222382Y39429D01*
X231216Y50943D01*
X233071Y55420D01*
X234925Y50943D01*
X243760Y39429D01*
X255274Y30595D01*
X268682Y25041D01*
X283071Y23146D01*
X297460Y25041D01*
X310868Y30595D01*
X322382Y39429D01*
X331216Y50943D01*
X333071Y55420D01*
X334925Y50943D01*
X343760Y39429D01*
X355274Y30595D01*
X368682Y25041D01*
X383071Y23146D01*
X397460Y25041D01*
X410868Y30595D01*
X422382Y39429D01*
X431216Y50943D01*
X433071Y55420D01*
X434925Y50943D01*
X443760Y39429D01*
X455274Y30595D01*
X468682Y25041D01*
X483071Y23146D01*
X497460Y25041D01*
X510868Y30595D01*
X522382Y39429D01*
X531216Y50943D01*
X533071Y55420D01*
X534925Y50943D01*
X543760Y39429D01*
X555274Y30595D01*
X568682Y25041D01*
X583071Y23146D01*
X597460Y25041D01*
X610868Y30595D01*
X622382Y39429D01*
X631216Y50943D01*
X633071Y55420D01*
X634925Y50943D01*
X643760Y39429D01*
X655274Y30595D01*
X668682Y25041D01*
X683071Y23146D01*
X697460Y25041D01*
X710868Y30595D01*
X722382Y39429D01*
X731216Y50943D01*
X733071Y55420D01*
X734925Y50943D01*
X743760Y39429D01*
X755274Y30595D01*
X768682Y25041D01*
X783071Y23146D01*
X797460Y25041D01*
X810868Y30595D01*
X822382Y39429D01*
X831216Y50943D01*
X836770Y64352D01*
X838665Y78740D01*
X836770Y93129D01*
X831216Y106537D01*
X822382Y118051D01*
X810868Y126886D01*
X810868D01*
Y521929D01*
X809921Y529124D01*
X807144Y535828D01*
X802726Y541585D01*
X704577Y639734D01*
X698820Y644151D01*
X692116Y646928D01*
X684921Y647875D01*
X510196D01*
X503222Y650764D01*
X495000Y651846D01*
X486778Y650764D01*
X479116Y647590D01*
X472537Y642542D01*
X467488Y635963D01*
X465000Y629955D01*
X462512Y635963D01*
X457463Y642542D01*
X450884Y647590D01*
X443222Y650764D01*
X435000Y651846D01*
X426778Y650764D01*
X419116Y647590D01*
X412537Y642542D01*
X407488Y635963D01*
X404315Y628301D01*
X403232Y620079D01*
X404315Y611857D01*
X405630Y608680D01*
X367797Y646514D01*
Y711163D01*
X366850Y718357D01*
X364073Y725061D01*
X359655Y730818D01*
X345818Y744655D01*
X340061Y749073D01*
X333357Y751850D01*
X326163Y752797D01*
X236514D01*
X184655Y804655D01*
X178898Y809073D01*
X172194Y811850D01*
X165000Y812797D01*
X48837D01*
X41643Y811850D01*
X34939Y809073D01*
X29182Y804655D01*
X20071Y795544D01*
Y1475992D01*
X846071D01*
Y1353855D01*
D02*
G37*
G36*
X755274Y510415D02*
Y126886D01*
X755274D01*
X743760Y118051D01*
X734925Y106537D01*
X733071Y102060D01*
X731216Y106537D01*
X722382Y118051D01*
X710868Y126886D01*
X710868D01*
Y526929D01*
X709920Y534123D01*
X707144Y540827D01*
X702726Y546584D01*
X669655Y579655D01*
X663898Y584073D01*
X657194Y586850D01*
X650000Y587797D01*
X486514D01*
X483601Y590709D01*
X486778Y589393D01*
X495000Y588311D01*
X503222Y589393D01*
X510196Y592282D01*
X673408D01*
X755274Y510415D01*
D02*
G37*
G36*
X67488Y755884D02*
X64315Y748222D01*
X63232Y740000D01*
X64315Y731778D01*
X67488Y724116D01*
X72537Y717537D01*
X79116Y712488D01*
X86778Y709315D01*
X95000Y708232D01*
X96841D01*
X143665Y661408D01*
Y542088D01*
X102463Y583290D01*
X95884Y588338D01*
X88222Y591512D01*
X80000Y592595D01*
X80000D01*
X71778Y591512D01*
X64116Y588338D01*
X62797Y587326D01*
Y757203D01*
X68501D01*
X67488Y755884D01*
D02*
G37*
G36*
X555274Y126886D02*
X555274D01*
X543760Y118051D01*
X534925Y106537D01*
X533071Y102060D01*
X531216Y106537D01*
X522382Y118051D01*
X510868Y126886D01*
X505868Y128957D01*
Y192203D01*
X509804D01*
X516778Y189315D01*
X525000Y188232D01*
X533222Y189315D01*
X540884Y192488D01*
X547463Y197537D01*
X552512Y204116D01*
X555274Y210785D01*
Y126886D01*
D02*
G37*
G36*
X467806Y533150D02*
X475000Y532203D01*
X638486D01*
X655274Y515415D01*
Y126886D01*
X655274D01*
X643760Y118051D01*
X634925Y106537D01*
X633071Y102060D01*
X631216Y106537D01*
X622382Y118051D01*
X610868Y126886D01*
X610868D01*
Y270315D01*
X609920Y277509D01*
X607144Y284213D01*
X602726Y289970D01*
X468904Y423792D01*
X466301Y430077D01*
Y533774D01*
X467806Y533150D01*
D02*
G37*
%LPC*%
G36*
X159213Y896009D02*
X148935Y894656D01*
X139358Y890689D01*
X131133Y884378D01*
X124823Y876154D01*
X120856Y866577D01*
X119503Y856299D01*
X120856Y846021D01*
X124823Y836444D01*
X131133Y828220D01*
X139358Y821909D01*
X148935Y817942D01*
X159213Y816589D01*
X169490Y817942D01*
X179067Y821909D01*
X187292Y828220D01*
X193602Y836444D01*
X197569Y846021D01*
X198922Y856299D01*
X197569Y866577D01*
X193602Y876154D01*
X187292Y884378D01*
X179067Y890689D01*
X169490Y894656D01*
X159213Y896009D01*
D02*
G37*
G36*
X305000Y1197797D02*
X125000D01*
X117806Y1196850D01*
X111102Y1194073D01*
X105345Y1189655D01*
X90119Y1174430D01*
X85702Y1168673D01*
X82925Y1161969D01*
X81978Y1154774D01*
Y1132403D01*
X80756Y1130811D01*
X77582Y1123149D01*
X76500Y1114927D01*
X77582Y1106705D01*
X80756Y1099043D01*
X85805Y1092464D01*
X92384Y1087415D01*
X100046Y1084242D01*
X108268Y1083159D01*
X116490Y1084242D01*
X124152Y1087415D01*
X130731Y1092464D01*
X135779Y1099043D01*
X138953Y1106705D01*
X140036Y1114927D01*
X138953Y1123149D01*
X137571Y1126485D01*
Y1142203D01*
X200345D01*
X194072Y1137390D01*
X189024Y1130811D01*
X185850Y1123149D01*
X184768Y1114927D01*
X185850Y1106705D01*
X189024Y1099043D01*
X194072Y1092464D01*
X200651Y1087415D01*
X208313Y1084242D01*
X216535Y1083159D01*
X261914D01*
X298232Y1046841D01*
Y968159D01*
X261041Y930967D01*
X255992Y924388D01*
X252819Y916726D01*
X251736Y908504D01*
Y787402D01*
X252819Y779179D01*
X255992Y771518D01*
X261041Y764938D01*
X267620Y759890D01*
X275282Y756716D01*
X283504Y755634D01*
X291726Y756716D01*
X299388Y759890D01*
X305967Y764938D01*
X311016Y771518D01*
X313504Y777525D01*
X315992Y771518D01*
X321041Y764938D01*
X327620Y759890D01*
X335282Y756716D01*
X343504Y755634D01*
X351726Y756716D01*
X358700Y759605D01*
X396163D01*
X403357Y760552D01*
X410061Y763329D01*
X415818Y767746D01*
X429655Y781584D01*
X434073Y787341D01*
X436850Y794045D01*
X437797Y801239D01*
Y1065000D01*
X436850Y1072194D01*
X434073Y1078899D01*
X429655Y1084655D01*
X324655Y1189655D01*
X318899Y1194073D01*
X312194Y1196850D01*
X305000Y1197797D01*
D02*
G37*
%LPD*%
G36*
X382203Y1053486D02*
Y880748D01*
X379418Y884378D01*
X371193Y890689D01*
X361616Y894656D01*
X351339Y896009D01*
X341061Y894656D01*
X331484Y890689D01*
X323260Y884378D01*
X316949Y876154D01*
X315272Y872105D01*
Y895345D01*
X352463Y932537D01*
X357512Y939116D01*
X360685Y946778D01*
X361768Y955000D01*
Y1060000D01*
X360685Y1068222D01*
X357512Y1075884D01*
X352463Y1082463D01*
X297536Y1137390D01*
X291264Y1142203D01*
X293486D01*
X382203Y1053486D01*
D02*
G37*
D23*
X95000Y740000D02*
X110000D01*
X175433Y220323D02*
Y674567D01*
X110000Y740000D02*
X175433Y674567D01*
X140000Y185000D02*
X140110D01*
X175433Y220323D01*
X275073Y1114927D02*
X330000Y1060000D01*
X283504Y908504D02*
X330000Y955000D01*
Y1060000D01*
X80000Y560827D02*
X140000Y500827D01*
Y235000D02*
Y500827D01*
X80000Y560827D02*
X80000D01*
X283504Y787402D02*
Y908504D01*
X216535Y1114927D02*
X275073D01*
X374016Y1218410D02*
X446590D01*
X495000Y1170000D01*
Y928450D02*
Y1170000D01*
X513450Y910000D02*
X756550D01*
X775000Y817953D02*
Y891550D01*
X756550Y910000D02*
X775000Y891550D01*
X495000Y928450D02*
X513450Y910000D01*
X773976Y816929D02*
X775000Y817953D01*
X810000Y1345000D02*
X835000Y1320000D01*
Y1023450D02*
Y1320000D01*
X773976Y1003937D02*
X775039Y1005000D01*
X816550D01*
X835000Y1023450D01*
D25*
X438504Y414882D02*
Y536496D01*
Y414882D02*
X583071Y270315D01*
X340000Y635000D02*
X438504Y536496D01*
X583071Y78740D02*
Y270315D01*
X478071Y220000D02*
Y296929D01*
Y83740D02*
Y220000D01*
X525000D01*
X390000Y385000D02*
X478071Y296929D01*
X305000Y320000D02*
X365000Y260000D01*
X305000Y320000D02*
Y480000D01*
X365000Y160000D02*
Y260000D01*
X283740Y78740D02*
X365000Y160000D01*
X478071Y83740D02*
X483071Y78740D01*
X35000Y425000D02*
X55000Y405000D01*
X35000Y425000D02*
Y771163D01*
X48837Y785000D02*
X165000D01*
X35000Y771163D02*
X48837Y785000D01*
X165000D02*
X225000Y725000D01*
X326163D01*
X340000Y711163D01*
Y635000D02*
Y711163D01*
X55000Y405000D02*
Y405000D01*
X475000Y560000D02*
X650000D01*
X435000Y620079D02*
X436507Y618572D01*
Y598493D02*
Y618572D01*
Y598493D02*
X475000Y560000D01*
X650000D02*
X683071Y526929D01*
Y78740D02*
Y526929D01*
X495000Y620079D02*
X684921D01*
X783071Y78740D02*
Y521929D01*
X684921Y620079D02*
X783071Y521929D01*
X390000Y385000D02*
Y530000D01*
X415000Y121323D02*
Y280000D01*
X345000Y350000D02*
Y515000D01*
Y350000D02*
X415000Y280000D01*
X283071Y78740D02*
X283740D01*
X383071D02*
Y89394D01*
X415000Y121323D01*
X265000Y595000D02*
Y650000D01*
Y595000D02*
X345000Y515000D01*
X240000Y545000D02*
X305000Y480000D01*
X305000Y1170000D02*
X410000Y1065000D01*
X343504Y787402D02*
X396163D01*
X410000Y801239D01*
Y1065000D01*
X125000Y1170000D02*
X305000D01*
X108268Y1114927D02*
X109774Y1116434D01*
Y1154774D01*
X125000Y1170000D01*
D28*
X783071Y78740D02*
D03*
X683071D02*
D03*
X483071D02*
D03*
X283071D02*
D03*
X183071D02*
D03*
X383071D02*
D03*
X583071D02*
D03*
X673976Y816929D02*
D03*
X773976D02*
D03*
X673976Y1003937D02*
D03*
X773976D02*
D03*
D29*
X83071Y78740D02*
D03*
X573976Y816929D02*
D03*
Y1003937D02*
D03*
D30*
X159213Y856299D02*
D03*
X351339D02*
D03*
D31*
X727362Y1320866D02*
D03*
X552165D02*
D03*
X313976D02*
D03*
X138780D02*
D03*
D32*
X475394Y1438976D02*
D03*
X804134D02*
D03*
X390748D02*
D03*
X62008D02*
D03*
D33*
X438504Y414882D02*
D03*
X95000Y740000D02*
D03*
X525000Y220000D02*
D03*
X320000Y230000D02*
D03*
X630000Y185000D02*
D03*
Y505000D02*
D03*
X650000Y660000D02*
D03*
X630000Y150000D02*
D03*
X80000Y560827D02*
D03*
X240000Y545000D02*
D03*
X265000Y650000D02*
D03*
X433071Y1375000D02*
D03*
X588582Y1265748D02*
D03*
X55000Y405000D02*
D03*
X140000Y185000D02*
D03*
X490000Y775000D02*
D03*
X390000Y530000D02*
D03*
X255276Y1003937D02*
D03*
X216535Y1114927D02*
D03*
X108268D02*
D03*
X343504Y787402D02*
D03*
X283504D02*
D03*
X140000Y235000D02*
D03*
X495000Y620079D02*
D03*
X435000D02*
D03*
X374016Y1218410D02*
D03*
X810000Y1345000D02*
D03*
%TF.MD5,9ff35c6cbfa7829007456150be613a31*%
M02*
