%TF.GenerationSoftware,Altium Limited,Altium Designer,20.2.6 (244)*%
G04 Layer_Color=8388736*
%FSLAX26Y26*%
%MOIN*%
%TF.SameCoordinates,2EAD6035-BE33-4F7B-B0E7-EE8266E33042*%
%TF.FilePolarity,Negative*%
%TF.FileFunction,Soldermask,Top*%
%TF.Part,Single*%
G01*
G75*
%TA.AperFunction,SMDPad,CuDef*%
%ADD10R,0.043307X0.031752*%
%ADD11R,0.051505X0.031752*%
%ADD12R,0.053150X0.037402*%
%ADD13R,0.059055X0.039370*%
%ADD15R,0.035433X0.031496*%
%TA.AperFunction,ConnectorPad*%
%ADD20R,0.015748X0.053150*%
%TA.AperFunction,SMDPad,CuDef*%
%ADD22R,0.037402X0.053150*%
%TA.AperFunction,ComponentPad*%
%ADD31O,0.041339X0.049213*%
%ADD34C,0.086740*%
%ADD35R,0.086740X0.086740*%
%ADD36C,0.055244*%
%ADD37O,0.049339X0.057213*%
%ADD38O,0.055244X0.082803*%
%TA.AperFunction,SMDPad,CuDef*%
%ADD42R,0.055244X0.041465*%
G04:AMPARAMS|DCode=43|XSize=132.016mil|YSize=65.087mil|CornerRadius=5.998mil|HoleSize=0mil|Usage=FLASHONLY|Rotation=180.000|XOffset=0mil|YOffset=0mil|HoleType=Round|Shape=RoundedRectangle|*
%AMROUNDEDRECTD43*
21,1,0.132016,0.053091,0,0,180.0*
21,1,0.120020,0.065087,0,0,180.0*
1,1,0.011996,-0.060010,0.026545*
1,1,0.011996,0.060010,0.026545*
1,1,0.011996,0.060010,-0.026545*
1,1,0.011996,-0.060010,-0.026545*
%
%ADD43ROUNDEDRECTD43*%
G04:AMPARAMS|DCode=44|XSize=43.433mil|YSize=65.087mil|CornerRadius=5.949mil|HoleSize=0mil|Usage=FLASHONLY|Rotation=180.000|XOffset=0mil|YOffset=0mil|HoleType=Round|Shape=RoundedRectangle|*
%AMROUNDEDRECTD44*
21,1,0.043433,0.053189,0,0,180.0*
21,1,0.031535,0.065087,0,0,180.0*
1,1,0.011898,-0.015768,0.026594*
1,1,0.011898,0.015768,0.026594*
1,1,0.011898,0.015768,-0.026594*
1,1,0.011898,-0.015768,-0.026594*
%
%ADD44ROUNDEDRECTD44*%
G04:AMPARAMS|DCode=45|XSize=29.654mil|YSize=57.213mil|CornerRadius=5.949mil|HoleSize=0mil|Usage=FLASHONLY|Rotation=0.000|XOffset=0mil|YOffset=0mil|HoleType=Round|Shape=RoundedRectangle|*
%AMROUNDEDRECTD45*
21,1,0.029654,0.045315,0,0,0.0*
21,1,0.017756,0.057213,0,0,0.0*
1,1,0.011898,0.008878,-0.022657*
1,1,0.011898,-0.008878,-0.022657*
1,1,0.011898,-0.008878,0.022657*
1,1,0.011898,0.008878,0.022657*
%
%ADD45ROUNDEDRECTD45*%
%ADD46R,0.051307X0.041465*%
%TA.AperFunction,ConnectorPad*%
%ADD47R,0.023748X0.061150*%
%ADD48R,0.078866X0.082803*%
%TA.AperFunction,Conductor*%
%ADD49R,0.070008X0.082803*%
%ADD50R,0.070008X0.082803*%
D10*
X563071Y358307D02*
D03*
D11*
X55000D02*
D03*
Y271614D02*
D03*
X140000Y358307D02*
D03*
Y271614D02*
D03*
X563071D02*
D03*
X733071Y358307D02*
D03*
Y271614D02*
D03*
X223071D02*
D03*
X393071D02*
D03*
X216535Y1151541D02*
D03*
Y1218538D02*
D03*
X108268Y1151541D02*
D03*
Y1218538D02*
D03*
X324803Y1151541D02*
D03*
Y1218538D02*
D03*
X393071Y358307D02*
D03*
X223071D02*
D03*
D12*
X541339Y1155512D02*
D03*
Y1214567D02*
D03*
X757874Y1155512D02*
D03*
Y1214567D02*
D03*
X649606Y1155512D02*
D03*
Y1214567D02*
D03*
D13*
X433071Y1141732D02*
D03*
Y1228347D02*
D03*
D15*
X134213Y523425D02*
D03*
X35787Y486024D02*
D03*
Y560827D02*
D03*
X134213Y659449D02*
D03*
X35787Y622047D02*
D03*
Y696850D02*
D03*
D20*
X200787Y1333661D02*
D03*
X226378D02*
D03*
X175197D02*
D03*
X251969D02*
D03*
X277559D02*
D03*
D22*
X137165Y1003937D02*
D03*
X215905D02*
D03*
X294646D02*
D03*
X373386D02*
D03*
D31*
X313976Y1320866D02*
D03*
X138780D02*
D03*
D34*
X783071Y78740D02*
D03*
X683071D02*
D03*
X483071D02*
D03*
X283071D02*
D03*
X183071D02*
D03*
X383071D02*
D03*
X583071D02*
D03*
X673976Y816929D02*
D03*
X773976D02*
D03*
X673976Y1003937D02*
D03*
X773976D02*
D03*
D35*
X83071Y78740D02*
D03*
X573976Y816929D02*
D03*
Y1003937D02*
D03*
D36*
X159213Y856299D02*
D03*
X351339D02*
D03*
D37*
X727362Y1320866D02*
D03*
X552165D02*
D03*
D38*
X475394Y1438976D02*
D03*
X804134D02*
D03*
X390748D02*
D03*
X62008D02*
D03*
D42*
X818071Y356299D02*
D03*
Y273622D02*
D03*
X648071Y356299D02*
D03*
Y273622D02*
D03*
X478071D02*
D03*
X308071Y356299D02*
D03*
Y273622D02*
D03*
D43*
X718583Y718504D02*
D03*
D44*
X809134Y464567D02*
D03*
X718583D02*
D03*
X628032D02*
D03*
D45*
X189252Y472441D02*
D03*
X239252D02*
D03*
X289252D02*
D03*
X339252D02*
D03*
X389252D02*
D03*
X439252D02*
D03*
X489252D02*
D03*
X539252D02*
D03*
X189252Y708661D02*
D03*
X239252D02*
D03*
X289252D02*
D03*
X339252D02*
D03*
X389252D02*
D03*
X439252D02*
D03*
X489252D02*
D03*
X539252D02*
D03*
D46*
X478071Y356299D02*
D03*
D47*
X614173Y1333661D02*
D03*
X639764D02*
D03*
X588582D02*
D03*
X665354D02*
D03*
X690945D02*
D03*
D48*
X685039Y1438976D02*
D03*
X594488D02*
D03*
X181102D02*
D03*
X271654D02*
D03*
D49*
X506398Y1438977D02*
D03*
X93012D02*
D03*
D50*
X773130Y1438976D02*
D03*
X359744D02*
D03*
%TF.MD5,7874ebccd8b6a9d1d92dffa5d178b189*%
M02*
