%TF.GenerationSoftware,Altium Limited,Altium Designer,20.2.6 (244)*%
G04 Layer_Color=16711935*
%FSLAX26Y26*%
%MOIN*%
%TF.SameCoordinates,2EAD6035-BE33-4F7B-B0E7-EE8266E33042*%
%TF.FilePolarity,Negative*%
%TF.FileFunction,Soldermask,Bot*%
%TF.Part,Single*%
G01*
G75*
%TA.AperFunction,ComponentPad*%
%ADD31O,0.041339X0.049213*%
%ADD34C,0.086740*%
%ADD35R,0.086740X0.086740*%
%ADD36C,0.055244*%
%ADD37O,0.049339X0.057213*%
%ADD38O,0.055244X0.082803*%
D31*
X313976Y1320866D02*
D03*
X138780D02*
D03*
D34*
X783071Y78740D02*
D03*
X683071D02*
D03*
X483071D02*
D03*
X283071D02*
D03*
X183071D02*
D03*
X383071D02*
D03*
X583071D02*
D03*
X673976Y816929D02*
D03*
X773976D02*
D03*
X673976Y1003937D02*
D03*
X773976D02*
D03*
D35*
X83071Y78740D02*
D03*
X573976Y816929D02*
D03*
Y1003937D02*
D03*
D36*
X159213Y856299D02*
D03*
X351339D02*
D03*
D37*
X727362Y1320866D02*
D03*
X552165D02*
D03*
D38*
X475394Y1438976D02*
D03*
X804134D02*
D03*
X390748D02*
D03*
X62008D02*
D03*
%TF.MD5,154ec6a0d191de91e45ef7acaac8213e*%
M02*
