%TF.GenerationSoftware,Altium Limited,Altium Designer,20.2.6 (244)*%
G04 Layer_Color=0*
%FSLAX26Y26*%
%MOIN*%
%TF.SameCoordinates,2EAD6035-BE33-4F7B-B0E7-EE8266E33042*%
%TF.FilePolarity,Positive*%
%TF.FileFunction,Plated,1,2,PTH,Drill*%
%TF.Part,Single*%
G01*
G75*
%TA.AperFunction,ComponentDrill*%
%ADD55C,0.043307*%
%ADD56C,0.027559*%
%ADD57O,0.025591X0.033465*%
%ADD58O,0.023622X0.051181*%
%TA.AperFunction,ViaDrill,NotFilled*%
%ADD59C,0.019685*%
D55*
X783071Y78740D02*
D03*
X683071D02*
D03*
X483071D02*
D03*
X283071D02*
D03*
X83071D02*
D03*
X183071D02*
D03*
X383071D02*
D03*
X583071D02*
D03*
X573976Y816929D02*
D03*
X673976D02*
D03*
X773976D02*
D03*
X573976Y1003937D02*
D03*
X673976D02*
D03*
X773976D02*
D03*
D56*
X159213Y856299D02*
D03*
X351339D02*
D03*
D57*
X727362Y1320866D02*
D03*
X552165D02*
D03*
X313976D02*
D03*
X138780D02*
D03*
D58*
X475394Y1438976D02*
D03*
X804134D02*
D03*
X390748D02*
D03*
X62008D02*
D03*
D59*
X438504Y414882D02*
D03*
X95000Y740000D02*
D03*
X525000Y220000D02*
D03*
X320000Y230000D02*
D03*
X630000Y185000D02*
D03*
Y505000D02*
D03*
X650000Y660000D02*
D03*
X630000Y150000D02*
D03*
X80000Y560827D02*
D03*
X240000Y545000D02*
D03*
X265000Y650000D02*
D03*
X433071Y1375000D02*
D03*
X588582Y1265748D02*
D03*
X55000Y405000D02*
D03*
X140000Y185000D02*
D03*
X490000Y775000D02*
D03*
X390000Y530000D02*
D03*
X255276Y1003937D02*
D03*
X216535Y1114927D02*
D03*
X108268D02*
D03*
X343504Y787402D02*
D03*
X283504D02*
D03*
X140000Y235000D02*
D03*
X495000Y620079D02*
D03*
X435000D02*
D03*
X374016Y1218410D02*
D03*
X810000Y1345000D02*
D03*
%TF.MD5,0e4761350512e28a38471aa549501f6d*%
M02*
